<svg width="115" height="32" viewBox="0 0 115 32" fill="none" xmlns="http://www.w3.org/2000/svg">
<path d="M7.752 23C5.92 23 4.564 22.564 3.684 21.692C2.812 20.812 2.376 19.456 2.376 17.624V7.736C2.376 7.4 2.46 7.148 2.628 6.98C2.796 6.812 3.048 6.728 3.384 6.728C3.72 6.728 3.972 6.812 4.14 6.98C4.308 7.148 4.392 7.4 4.392 7.736V17.624C4.392 18.48 4.492 19.152 4.692 19.64C4.9 20.128 5.248 20.476 5.736 20.684C6.224 20.884 6.896 20.984 7.752 20.984H10.632C11.488 20.984 12.16 20.884 12.648 20.684C13.136 20.476 13.48 20.128 13.68 19.64C13.888 19.152 13.992 18.48 13.992 17.624V7.736C13.992 7.4 14.076 7.148 14.244 6.98C14.412 6.812 14.664 6.728 15 6.728C15.336 6.728 15.588 6.812 15.756 6.98C15.924 7.148 16.008 7.4 16.008 7.736V17.624C16.008 19.456 15.572 20.812 14.7 21.692C13.828 22.564 12.472 23 10.632 23H7.752ZM21.879 23C21.207 23 20.871 22.664 20.871 21.992V11.84C20.871 11.168 21.207 10.832 21.879 10.832C22.551 10.832 22.887 11.168 22.887 11.84V12.236C23.735 11.3 24.983 10.832 26.631 10.832H27.303C28.903 10.832 30.087 11.216 30.855 11.984C31.623 12.752 32.007 13.936 32.007 15.536V21.992C32.007 22.664 31.671 23 30.999 23C30.327 23 29.991 22.664 29.991 21.992V15.536C29.991 14.488 29.799 13.78 29.415 13.412C29.039 13.036 28.335 12.848 27.303 12.848H26.631C25.671 12.848 24.835 12.96 24.123 13.184C23.411 13.4 22.999 13.744 22.887 14.216V21.992C22.887 22.664 22.551 23 21.879 23ZM37.4336 8.864C36.6736 8.864 36.2936 8.48 36.2936 7.712V7.004C36.2936 6.252 36.6736 5.876 37.4336 5.876H38.1296C38.8576 5.876 39.2216 6.252 39.2216 7.004V7.712C39.2216 8.48 38.8576 8.864 38.1296 8.864H37.4336ZM37.7696 23C37.0976 23 36.7616 22.664 36.7616 21.992V11.84C36.7616 11.168 37.0976 10.832 37.7696 10.832C38.4416 10.832 38.7776 11.168 38.7776 11.84V21.992C38.7776 22.664 38.4416 23 37.7696 23ZM44.2494 23C43.6094 23 43.2894 22.68 43.2894 22.04V21.44C43.2894 20.816 43.6094 20.504 44.2494 20.504H44.8254C45.4334 20.504 45.7374 20.816 45.7374 21.44V22.04C45.7374 22.68 45.4334 23 44.8254 23H44.2494Z" fill="white"/>
<path d="M54.3062 23C52.9382 23 51.8702 22.724 51.1022 22.172C50.3422 21.62 49.8662 20.768 49.6742 19.616C49.6422 19.264 49.7142 19 49.8902 18.824C50.0662 18.648 50.3222 18.56 50.6582 18.56C50.9942 18.56 51.2382 18.64 51.3902 18.8C51.5502 18.96 51.6582 19.208 51.7142 19.544C51.8342 20.096 52.0902 20.476 52.4822 20.684C52.8822 20.884 53.4902 20.984 54.3062 20.984H57.7622C58.7942 20.984 59.4942 20.8 59.8622 20.432C60.2382 20.056 60.4262 19.36 60.4262 18.344C60.4262 17.312 60.2342 16.608 59.8502 16.232C59.4662 15.848 58.7702 15.656 57.7622 15.656H54.7862C53.2742 15.656 52.1502 15.288 51.4142 14.552C50.6862 13.808 50.3222 12.68 50.3222 11.168C50.3222 9.664 50.6822 8.548 51.4022 7.82C52.1302 7.092 53.2502 6.728 54.7622 6.728H57.6182C58.8902 6.728 59.8862 6.988 60.6062 7.508C61.3342 8.028 61.7942 8.824 61.9862 9.896C62.0342 10.24 61.9702 10.504 61.7942 10.688C61.6182 10.864 61.3542 10.952 61.0022 10.952C60.6822 10.952 60.4422 10.868 60.2822 10.7C60.1222 10.532 60.0182 10.288 59.9702 9.968C59.8422 9.496 59.5982 9.176 59.2382 9.008C58.8782 8.832 58.3382 8.744 57.6182 8.744H54.7622C53.8022 8.744 53.1582 8.916 52.8302 9.26C52.5022 9.596 52.3382 10.232 52.3382 11.168C52.3382 12.112 52.5062 12.76 52.8422 13.112C53.1782 13.464 53.8262 13.64 54.7862 13.64H57.7622C59.3382 13.64 60.5102 14.024 61.2782 14.792C62.0542 15.56 62.4422 16.744 62.4422 18.344C62.4422 19.936 62.0582 21.112 61.2902 21.872C60.5222 22.624 59.3462 23 57.7622 23H54.3062ZM71.9914 23C70.4074 23 69.2394 22.624 68.4874 21.872C67.7354 21.12 67.3594 19.96 67.3594 18.392V12.848H66.1834C65.5114 12.848 65.1754 12.512 65.1754 11.84C65.1754 11.168 65.5114 10.832 66.1834 10.832H67.3594V9.08C67.3594 8.408 67.6954 8.072 68.3674 8.072C69.0394 8.072 69.3754 8.408 69.3754 9.08V10.832H72.1354C72.8074 10.832 73.1434 11.168 73.1434 11.84C73.1434 12.512 72.8074 12.848 72.1354 12.848H69.3754V18.392C69.3754 19.408 69.5594 20.096 69.9274 20.456C70.2954 20.808 70.9834 20.984 71.9914 20.984C72.3034 20.984 72.5474 21.064 72.7234 21.224C72.9074 21.384 72.9994 21.64 72.9994 21.992C72.9994 22.664 72.6634 23 71.9914 23ZM80.0771 23C78.4851 23 77.3011 22.616 76.5251 21.848C75.7571 21.08 75.3731 19.904 75.3731 18.32V15.536C75.3731 13.928 75.7571 12.744 76.5251 11.984C77.3011 11.216 78.4851 10.832 80.0771 10.832H82.0451C83.6451 10.832 84.8291 11.216 85.5971 11.984C86.3651 12.752 86.7491 13.936 86.7491 15.536V18.296C86.7491 19.888 86.3651 21.072 85.5971 21.848C84.8291 22.616 83.6451 23 82.0451 23H80.0771ZM77.3891 18.32C77.3891 19.352 77.5771 20.056 77.9531 20.432C78.3291 20.8 79.0371 20.984 80.0771 20.984H82.0451C83.0931 20.984 83.8011 20.796 84.1691 20.42C84.5451 20.044 84.7331 19.336 84.7331 18.296V15.536C84.7331 14.488 84.5451 13.78 84.1691 13.412C83.8011 13.036 83.0931 12.848 82.0451 12.848H80.0771C79.3811 12.848 78.8371 12.928 78.4451 13.088C78.0611 13.24 77.7891 13.512 77.6291 13.904C77.4691 14.288 77.3891 14.832 77.3891 15.536V18.32ZM92.1681 23C91.4961 23 91.1601 22.664 91.1601 21.992V11.84C91.1601 11.168 91.4961 10.832 92.1681 10.832C92.8401 10.832 93.1761 11.168 93.1761 11.84V12.776C93.6481 12.136 94.2481 11.652 94.9761 11.324C95.7121 10.996 96.5521 10.832 97.4961 10.832C98.1681 10.832 98.5041 11.168 98.5041 11.84C98.5041 12.512 98.1681 12.848 97.4961 12.848C96.1121 12.848 95.0561 13.104 94.3281 13.616C93.6001 14.128 93.2161 14.804 93.1761 15.644V21.992C93.1761 22.664 92.8401 23 92.1681 23ZM102.374 17.744V18.32C102.374 19.352 102.562 20.056 102.938 20.432C103.314 20.8 104.022 20.984 105.062 20.984H107.03C107.846 20.984 108.45 20.908 108.842 20.756C109.234 20.604 109.494 20.336 109.622 19.952C109.71 19.648 109.83 19.416 109.982 19.256C110.142 19.096 110.382 19.016 110.702 19.016C111.038 19.016 111.294 19.104 111.47 19.28C111.646 19.456 111.702 19.712 111.638 20.048C111.462 21.04 110.99 21.78 110.222 22.268C109.454 22.756 108.39 23 107.03 23H105.062C103.47 23 102.286 22.616 101.51 21.848C100.742 21.08 100.358 19.904 100.358 18.32V15.536C100.358 13.912 100.742 12.72 101.51 11.96C102.286 11.192 103.47 10.816 105.062 10.832H107.03C108.63 10.832 109.814 11.216 110.582 11.984C111.35 12.744 111.734 13.928 111.734 15.536V16.736C111.734 17.408 111.398 17.744 110.726 17.744H102.374ZM105.062 12.848C104.022 12.832 103.314 13.012 102.938 13.388C102.562 13.764 102.374 14.48 102.374 15.536V15.728H109.718V15.536C109.718 14.488 109.53 13.78 109.154 13.412C108.786 13.036 108.078 12.848 107.03 12.848H105.062Z" fill="#17202A"/>
<path d="M2 26H113V29H2V26Z" fill="white"/>
</svg>
